<svg class="svg-icon" style="width: 1em; height: 1em;vertical-align: middle;fill: currentColor;overflow: hidden;" viewBox="0 0 1024 1024" version="1.1" xmlns="http://www.w3.org/2000/svg"><path d="M31.723452 818.929848h851.658184c14.537059 0 26.413527 11.852932 26.413527 26.366455v50.120414c0 14.514546-11.875445 26.389991-26.413527 26.38999H31.723452c-14.489987 0-26.366455-11.875445-26.366455-26.38999v-50.120414c0-14.513523 11.877491-26.366455 26.366455-26.366455z" fill="green" /><path d="M390.401791 853.895127l128.172938-353.476883 96.724755 35.06147-115.489083 318.415413zM548.93207 102.203526a505.20526 505.20526 0 0 1 19.097926 0.498349c-30.547676 20.91429-60.334013 45.475637-88.505577 73.469145-62.946508 62.590399-108.743462 133.340624-135.299228 202.818883-62.804269-23.551345-116.630068-43.884399-155.063325-58.635328-22.755214-8.728784-12.351281-40.962865-0.949626-54.24126C275.52976 165.007795 404.890754 101.335764 548.93207 102.203526zM780.243834 213.369149c-32.73243-87.840429-98.102123-110.750162-177.485965-64.989023-29.786337 17.174114-57.340848 40.962865-83.896615 67.352856-57.340848 57.008274-96.771827 122.507927-115.916824 185.277403 113.065899 42.30544 245.848823 91.689075 368.464196 137.153456 21.662326-53.505504 33.538794-117.449734 31.92402-185.8832-1.189079-49.752025-7.649199-97.402183-23.088812-138.911492z m57.815662-10.190063C948.751329 290.295015 1019.536347 425.796858 1018.633793 577.59482c-3.37281 21.876196-13.634505 42.660527-36.912627 38.480329-45.844026-16.935684-97.959883-36.24748-153.304265-56.770868 21.187512-61.73594 32.446928-132.878091 30.641819-208.353935-1.235128-52.175209-8.647943-101.963049-20.999224-147.77126z" fill="green" /></svg>